Patient4_TMGait_0pt6_01_left_21_GRF.mot
version=1
nRows=52
nColumns=19
inDegrees=no
endheader
time	F1x	F1y	F1z	M1x	M1y	M1z	F2x	F2y	F2z	M2x	M2y	M2z	EC1x	EC1y	EC1z	EC2x	EC2y	EC2z
25.52	-7.4954	14.1906	-9.2592	-2.2338	4.8379	19.8663	-29.655	721.0366	-50.412	279.4449	58.4762	691.1207	-0.0592	0.0182	-0.0073	-0.0462	0.0165	0.9585
25.5324	-4.9052	10.1618	-6.189	-1.73	3.2491	13.8888	-26.9867	726.0962	-49.6503	280.8084	56.9513	691.7909	-0.0592	0.0182	-0.0073	-0.0462	0.0165	0.9585
25.5449	-2.8106	6.779	-3.5848	-1.3237	1.8566	8.8999	-24.165	731.1173	-48.539	282.3674	54.9389	691.6136	-0.0592	0.0182	-0.0073	-0.0462	0.0165	0.9585
25.5573	-1.2934	4.2288	-1.5865	-1.0338	0.75335	5.1584	-21.3959	736.2897	-47.1591	284.1953	52.582	690.9997	-0.0592	0.0182	-0.0073	-0.0462	0.0165	0.9585
25.5697	-0.29556	2.495	-0.20188	-0.85472	-0.033651	2.6075	-18.8467	741.8743	-45.6648	286.3405	50.0901	690.4612	-0.0592	0.0182	-0.0073	-0.0462	0.0165	0.9585
25.5821	0.2584	1.4579	0.66551	-0.76512	-0.55521	1.077	-16.6349	747.9042	-44.207	288.7421	47.658	690.2907	-0.0592	0.0182	-0.0073	-0.0462	0.0165	0.9585
25.5946	0.503	0.91048	1.1312	-0.72848	-0.86019	0.26508	-14.8219	754.1348	-42.9147	291.2236	45.4436	690.4807	-0.0592	0.0182	-0.0073	-0.0462	0.0165	0.9585
25.607	0.49651	0.6686	1.3245	-0.70815	-1.0329	-0.061574	-13.3695	760.0716	-41.8579	293.5191	43.5157	690.7319	-0.0592	0.0182	-0.0073	-0.0462	0.0165	0.9585
25.6194	0.34417	0.52114	1.3456	-0.65836	-1.1223	-0.20455	-12.1703	765.0152	-41.087	295.3052	41.8983	690.4927	-0.0592	0.0182	-0.0073	-0.0462	0.0165	0.9585
25.6319	0.069116	0.30209	1.2764	-0.53701	-1.1849	-0.36509	-11.0362	768.2357	-40.6071	296.2692	40.5459	689.119	-0.0592	0.0182	-0.0073	-0.0462	0.0165	0.9585
25.6443	-0.2553	-0.15623	1.1709	-0.30002	-1.2409	-0.77279	-9.7511	769.1241	-40.4102	296.1653	39.385	686.0215	-0.0592	0.0182	-0.0073	-0.0462	0.0165	0.9585
25.6567	-0.61098	-0.97565	1.0617	0.090726	-1.3025	-1.5554	-8.1232	767.2957	-40.4692	294.8525	38.3304	680.7705	-0.0592	0.0182	-0.0073	-0.0462	0.0165	0.9585
25.6691	-0.92474	-2.2572	0.9591	0.6633	-1.3494	-2.8352	-6.0157	762.6524	-40.7878	292.3109	37.3442	673.1935	-0.0592	0.0182	-0.0073	-0.0462	0.0165	0.9585
25.6816	-1.139	-4.0179	0.86431	1.4174	-1.3561	-4.6084	-3.4144	755.402	-41.3827	288.6476	36.4388	663.4221	-0.0592	0.0182	-0.0073	-0.0462	0.0165	0.9585
25.694	-1.1388	-6.1547	0.7637	2.3082	-1.2656	-6.7704	-0.38394	746.0668	-42.2729	284.1025	35.6602	651.8726	-0.0592	0.0182	-0.0073	-0.0462	0.0165	0.9585
25.7064	-0.77742	-8.3691	0.64574	3.2175	-1.0068	-9.0164	2.9214	735.5072	-43.4477	279.0467	35.0601	639.2944	-0.0592	0.0182	-0.0073	-0.0462	0.0165	0.9585
25.7189	0.12044	-10.091	0.48343	3.9164	-0.4787	-10.7655	6.3429	724.7528	-44.8692	273.9236	34.6675	626.5694	-0.0592	0.0182	-0.0073	-0.0462	0.0165	0.9585
25.7313	1.7665	-10.4093	0.25899	4.0371	0.42284	-11.0947	9.7061	714.8599	-46.4706	269.1809	34.4842	614.6234	-0.0592	0.0182	-0.0073	-0.0462	0.0165	0.9585
25.7437	4.3395	-7.9955	-0.059834	3.0453	1.8008	-8.635	12.9025	706.6477	-48.1724	265.1658	34.4794	604.1707	-0.0592	0.0182	-0.0073	-0.0462	0.0165	0.9585
25.7561	7.9717	-1.1265	-0.49169	0.24405	3.7226	-1.6112	15.8573	700.5007	-49.8842	262.0431	34.5955	595.5558	-0.0592	0.0182	-0.0073	-0.0462	0.0165	0.9585
25.7686	12.5982	12.2607	-1.042	-5.1958	6.1671	12.1452	18.585	696.2131	-51.5048	259.7382	34.7344	588.5999	-0.0592	0.0182	-0.0073	-0.0462	0.0165	0.9585
25.781	17.8978	34.2621	-1.6727	-14.1164	8.9571	34.8251	21.1369	692.9661	-52.9272	257.9352	34.782	582.6143	-0.0592	0.0182	-0.0073	-0.0462	0.0165	0.9585
25.7934	23.0344	66.5351	-2.2941	-27.1709	11.6611	68.1994	23.5746	689.4418	-54.0063	256.1277	34.5904	576.5132	-0.0592	0.0182	-0.0073	-0.0462	0.0165	0.9585
25.8059	26.5555	109.445	-2.7337	-44.4886	13.5092	112.6885	25.9224	684.0074	-54.5428	253.6965	33.9837	568.9703	-0.0592	0.0182	-0.0073	-0.0462	0.0165	0.9585
25.8183	26.3854	161.1361	-2.6865	-65.293	13.3574	166.4678	28.1292	674.983	-54.2849	250.0075	32.7782	558.668	-0.0592	0.0182	-0.0073	-0.0462	0.0165	0.9585
25.8307	21.0679	217.3187	-1.6744	-87.817	10.1495	225.1681	30.1005	660.8747	-53.0115	244.5037	30.8452	544.4426	-0.0592	0.0182	-0.0073	-0.0462	0.0165	0.9585
25.8431	11.6941	272.268	0.8919	-109.7049	3.7363	282.8222	31.6916	640.6889	-50.5968	236.8125	28.1543	525.5566	-0.0592	0.0182	-0.0073	-0.0462	0.0165	0.9585
25.8556	0.83331	320.3847	5.1368	-128.7259	-4.9693	333.3073	32.8387	613.9698	-47.1202	226.7606	24.8254	501.6677	-0.0592	0.0182	-0.0073	-0.0462	0.0165	0.9585
25.868	-9.5757	359.0835	10.4175	-143.8827	-14.5054	373.6305	33.4775	580.7893	-42.8166	214.3631	21.0883	472.869	-0.0592	0.0182	-0.0073	-0.0462	0.0165	0.9585
25.8804	-18.5203	389.2258	15.7318	-155.5872	-23.4164	404.5265	33.6363	541.6228	-38.0215	199.786	17.2101	439.5359	-0.0592	0.0182	-0.0073	-0.0462	0.0165	0.9585
25.8929	-25.6043	413.6328	20.3701	-165.0194	-30.8208	428.9316	33.3261	497.3451	-33.0777	183.3391	13.4469	402.3956	-0.0592	0.0182	-0.0073	-0.0462	0.0165	0.9585
25.9053	-30.8835	435.4144	23.9222	-173.4591	-36.338	450.1234	32.5523	449.0126	-28.2342	165.4113	9.9761	362.2784	-0.0592	0.0182	-0.0073	-0.0462	0.0165	0.9585
25.9177	-34.5223	457.1006	26.3335	-181.9274	-40.0048	470.6862	31.1982	397.8543	-23.6218	146.4577	6.9242	320.1811	-0.0592	0.0182	-0.0073	-0.0462	0.0165	0.9585
25.9301	-36.71	480.4786	27.9161	-191.1147	-42.2401	492.4436	29.1246	345.2242	-19.3127	126.984	4.3859	277.1912	-0.0592	0.0182	-0.0073	-0.0462	0.0165	0.9585
25.9426	-37.6088	506.7124	29.0662	-201.4423	-43.538	516.581	26.2054	292.6309	-15.3856	107.5476	2.4537	234.5226	-0.0592	0.0182	-0.0073	-0.0462	0.0165	0.9585
25.955	-37.4541	536.3896	30.2822	-213.085	-44.4946	543.7245	22.4475	241.7075	-11.9452	88.7448	1.1986	193.4563	-0.0592	0.0182	-0.0073	-0.0462	0.0165	0.9585
25.9674	-36.5354	569.3374	31.9402	-225.9286	-45.5952	573.7162	18.034	194.0785	-9.0814	71.169	0.61886	155.2338	-0.0592	0.0182	-0.0073	-0.0462	0.0165	0.9585
25.9799	-35.2196	604.6306	34.385	-239.5728	-47.3187	605.6858	13.3081	151.1793	-6.8327	55.3439	0.61928	120.9402	-0.0592	0.0182	-0.0073	-0.0462	0.0165	0.9585
25.9923	-33.8279	640.9214	37.6545	-253.4853	-49.8202	638.3051	8.7244	114.0068	-5.1452	41.6374	0.99067	91.2904	-0.0592	0.0182	-0.0073	-0.0462	0.0165	0.9585
26.0047	-32.5185	676.7976	41.5115	-267.1428	-52.9202	670.1898	4.661	82.9927	-3.9011	30.2105	1.5012	66.5834	-0.0592	0.0182	-0.0073	-0.0462	0.0165	0.9585
26.0171	-31.2568	710.8578	45.4477	-280.0505	-56.1049	699.9562	1.3882	57.9894	-2.9495	21.0171	1.9376	46.6533	-0.0592	0.0182	-0.0073	-0.0462	0.0165	0.9585
26.0296	-29.9543	741.6321	49.0529	-291.6788	-58.9343	726.1696	-1.0122	38.4925	-2.1845	13.871	2.189	31.1036	-0.0592	0.0182	-0.0073	-0.0462	0.0165	0.9585
26.042	-28.5234	767.6391	52.0643	-301.4779	-61.1031	747.4208	-2.5096	23.7869	-1.535	8.5078	2.1987	19.3596	-0.0592	0.0182	-0.0073	-0.0462	0.0165	0.9585
26.0544	-26.8753	787.6322	54.4514	-308.9619	-62.5344	762.5784	-3.1852	13.1487	-0.98833	4.6533	1.9928	10.8596	-0.0592	0.0182	-0.0073	-0.0462	0.0165	0.9585
26.0669	-24.9811	800.7721	56.2438	-313.792	-63.2364	770.9365	-3.1654	5.9084	-0.55029	2.053	1.6285	5.057	-0.0592	0.0182	-0.0073	-0.0462	0.0165	0.9585
26.0793	-22.842	806.8051	57.523	-315.8512	-63.2925	772.362	-2.7352	1.4616	-0.23098	0.47468	1.2125	1.4797	-0.0592	0.0182	-0.0073	-0.0462	0.0165	0.9585
26.0917	-20.4741	806.1741	58.3454	-315.2935	-62.7757	767.4017	-2.1451	-0.87027	-0.025743	-0.33437	0.82829	-0.41672	-0.0592	0.0182	-0.0073	-0.0462	0.0165	0.9585
26.1041	-17.9201	799.9761	58.7888	-312.5278	-61.7913	757.2127	-1.5611	-1.7389	0.085675	-0.61596	0.51873	-1.1373	-0.0592	0.0182	-0.0073	-0.0462	0.0165	0.9585
26.1166	-15.2739	789.7865	58.9334	-308.1513	-60.4593	743.3721	-1.0674	-1.7051	0.12269	-0.57488	0.30093	-1.1288	-0.0592	0.0182	-0.0073	-0.0462	0.0165	0.9585
26.129	-12.6367	777.4037	58.8864	-302.8495	-58.9374	727.6463	-0.69267	-1.1919	0.11618	-0.36539	0.1631	-0.72913	-0.0592	0.0182	-0.0073	-0.0462	0.0165	0.9585
26.1414	-10.1233	764.5444	58.7557	-297.2832	-57.3843	711.6835	-0.43305	-0.48401	0.083114	-0.091714	0.093616	-0.16025	-0.0592	0.0182	-0.0073	-0.0462	0.0165	0.9585
26.1539	-7.8431	752.6936	58.6346	-292.0289	-55.9342	696.8613	-0.26805	0.24166	0.040865	0.18256	0.069855	0.43546	-0.0592	0.0182	-0.0073	-0.0462	0.0165	0.9585
